<svg width="728" height="910" viewBox="0 0 728 910" fill="none" xmlns="http://www.w3.org/2000/svg">
<rect width="728" height="910" fill="white"/>
<path d="M40 255.013H688V280.592H40V255.013Z" fill="#CDCDCD"/>
<path d="M40 280.592H688V445.789H40V280.592Z" fill="#CDCDCD"/>
<path d="M65.5789 280.592H663.487V445.789H65.5789V280.592Z" fill="#333333"/>
<path d="M73.0396 311.5V445.789H657.092V311.5H73.0396Z" fill="#CDCDCD"/>
<path d="M364.94 396.73C374.876 396.73 382.932 388.674 382.932 378.737C382.932 368.8 374.876 360.744 364.94 360.744C355.003 360.744 346.947 368.8 346.947 378.737C346.947 388.674 355.003 396.73 364.94 396.73Z" fill="#616161"/>
<path d="M40 445.789H688V610.986H40V445.789Z" fill="#CDCDCD"/>
<path d="M65.5789 445.789H663.487V610.986H65.5789V445.789Z" fill="#333333"/>
<path d="M73.0396 476.697V610.987H657.092V476.697H73.0396Z" fill="#CDCDCD"/>
<path d="M364.94 561.927C374.876 561.927 382.932 553.871 382.932 543.934C382.932 533.997 374.876 525.941 364.94 525.941C355.003 525.941 346.947 533.997 346.947 543.934C346.947 553.871 355.003 561.927 364.94 561.927Z" fill="#616161"/>
<path d="M678 851.889V856.167C678 859.434 678 861.067 677.364 862.315C676.805 863.413 675.913 864.305 674.815 864.864C673.567 865.5 671.934 865.5 668.667 865.5H664.389M656.611 830.5H652.333C649.066 830.5 647.433 830.5 646.185 831.136C645.087 831.695 644.195 832.587 643.636 833.685C643 834.933 643 836.566 643 839.833V844.111M666.333 842.167L678 830.5M678 830.5H666.333M678 830.5V842.167M654.667 853.833L643 865.5M643 865.5H654.667M643 865.5L643 853.833" stroke="#333333" stroke-width="3" stroke-linecap="round" stroke-linejoin="round"/>
</svg>
