<svg width="192" height="161" viewBox="0 0 192 161" fill="none" xmlns="http://www.w3.org/2000/svg">
<path d="M155.5 3L48.5 0.5L49 160.5L155.5 151V3Z" fill="#DADADA"/>
<path d="M48.5 0.5L37.5 5L38 146L49 160.5L48.5 0.5Z" fill="#CECECE"/>
<path d="M14.371 80.336C16.0884 81.3253 16.947 82.8187 16.947 84.816C16.947 86.4773 16.359 87.84 15.183 88.904C14.007 89.968 12.5604 90.5 10.843 90.5H2.52703V70.9H10.255C11.935 70.9 13.3444 71.4227 14.483 72.468C15.6404 73.4947 16.219 74.8107 16.219 76.416C16.219 78.04 15.603 79.3467 14.371 80.336ZM10.255 74.512H6.39103V78.824H10.255C10.8524 78.824 11.347 78.6187 11.739 78.208C12.1497 77.7973 12.355 77.284 12.355 76.668C12.355 76.052 12.159 75.5387 11.767 75.128C11.375 74.7173 10.871 74.512 10.255 74.512ZM10.843 86.888C11.4964 86.888 12.0377 86.6733 12.467 86.244C12.8964 85.796 13.111 85.236 13.111 84.564C13.111 83.9107 12.8964 83.3693 12.467 82.94C12.0377 82.492 11.4964 82.268 10.843 82.268H6.39103V86.888H10.843ZM33.7882 70.9C35.6735 70.9 37.2602 71.5347 38.5482 72.804C39.8362 74.0733 40.4802 75.632 40.4802 77.48C40.4802 79.328 39.8362 80.8867 38.5482 82.156C37.2602 83.4253 35.6735 84.06 33.7882 84.06H30.3442V90.5H26.4802V70.9H33.7882ZM33.7882 80.448C34.6095 80.448 35.2908 80.168 35.8322 79.608C36.3735 79.0293 36.6442 78.32 36.6442 77.48C36.6442 76.6213 36.3735 75.912 35.8322 75.352C35.2908 74.792 34.6095 74.512 33.7882 74.512H30.3442V80.448H33.7882ZM53.5997 90.5L52.4237 86.972H44.6117L43.4357 90.5H39.2637L46.1237 70.9H50.9117L57.7997 90.5H53.5997ZM45.8437 83.36H51.2197L48.5317 75.352L45.8437 83.36ZM70.0908 80.364C71.9575 81.3533 72.8908 82.9027 72.8908 85.012C72.8908 86.7667 72.2281 88.1853 70.9028 89.268C69.5775 90.3507 67.8695 90.892 65.7788 90.892C62.1388 90.892 59.7028 89.352 58.4708 86.272L61.8028 84.396C62.4001 86.3 63.7255 87.252 65.7788 87.252C66.8428 87.252 67.6548 87.028 68.2148 86.58C68.7748 86.132 69.0548 85.5253 69.0548 84.76C69.0548 83.9947 68.7748 83.388 68.2148 82.94C67.6735 82.492 66.8895 82.268 65.8628 82.268H63.4268V78.824H65.2748C66.2455 78.824 67.0015 78.6187 67.5428 78.208C68.0841 77.7787 68.3548 77.2 68.3548 76.472C68.3548 75.744 68.1215 75.1747 67.6548 74.764C67.1881 74.3347 66.4975 74.12 65.5828 74.12C63.9028 74.12 62.7268 74.9413 62.0548 76.584L58.7788 74.68C60.1041 71.8987 62.3721 70.508 65.5828 70.508C67.5241 70.508 69.1108 71.0307 70.3428 72.076C71.5748 73.1213 72.1908 74.5027 72.1908 76.22C72.1908 77.9747 71.4908 79.356 70.0908 80.364ZM82.7061 70.9C84.5915 70.9 86.1781 71.5347 87.4661 72.804C88.7541 74.0733 89.3981 75.632 89.3981 77.48C89.3981 79.328 88.7541 80.8867 87.4661 82.156C86.1781 83.4253 84.5915 84.06 82.7061 84.06H79.2621V90.5H75.3981V70.9H82.7061ZM82.7061 80.448C83.5275 80.448 84.2088 80.168 84.7501 79.608C85.2915 79.0293 85.5621 78.32 85.5621 77.48C85.5621 76.6213 85.2915 75.912 84.7501 75.352C84.2088 74.792 83.5275 74.512 82.7061 74.512H79.2621V80.448H82.7061ZM102.518 90.5L101.342 86.972H93.5297L92.3537 90.5H88.1817L95.0417 70.9H99.8297L106.718 90.5H102.518ZM94.7617 83.36H100.138L97.4497 75.352L94.7617 83.36ZM116.125 78.32C118.029 78.32 119.587 78.8893 120.801 80.028C122.014 81.148 122.621 82.604 122.621 84.396C122.621 86.2067 122.014 87.6813 120.801 88.82C119.587 89.94 118.029 90.5 116.125 90.5H108.621V70.9H120.941V74.596H112.485V78.32H116.125ZM116.125 86.888C116.89 86.888 117.525 86.6733 118.029 86.244C118.533 85.796 118.785 85.18 118.785 84.396C118.785 83.612 118.533 83.0053 118.029 82.576C117.525 82.1467 116.89 81.932 116.125 81.932H112.485V86.888H116.125ZM141.355 87.952C139.376 89.912 136.968 90.892 134.131 90.892C131.294 90.892 128.886 89.912 126.907 87.952C124.947 85.9733 123.967 83.556 123.967 80.7C123.967 77.844 124.947 75.436 126.907 73.476C128.886 71.4973 131.294 70.508 134.131 70.508C136.968 70.508 139.376 71.4973 141.355 73.476C143.334 75.436 144.323 77.844 144.323 80.7C144.323 83.556 143.334 85.9733 141.355 87.952ZM129.623 85.32C130.836 86.5147 132.339 87.112 134.131 87.112C135.923 87.112 137.426 86.5147 138.639 85.32C139.852 84.1067 140.459 82.5667 140.459 80.7C140.459 78.8333 139.852 77.2933 138.639 76.08C137.426 74.8667 135.923 74.26 134.131 74.26C132.339 74.26 130.836 74.8667 129.623 76.08C128.41 77.2933 127.803 78.8333 127.803 80.7C127.803 82.5667 128.41 84.1067 129.623 85.32ZM158.882 70.9V74.596H153.59V90.5H149.726V74.596H144.462V70.9H158.882ZM176.355 90.5H171.903L164.903 81.316V90.5H161.039V70.9H164.903V79.552L171.623 70.9H176.075L168.823 80.42L176.355 90.5ZM182.129 86.804H190.389V90.5H178.265V70.9H190.249V74.596H182.129V78.768H189.549V82.408H182.129V86.804Z" fill="#333333"/>
</svg>
